<svg width="21" height="18" viewBox="0 0 21 18" fill="none" xmlns="http://www.w3.org/2000/svg">
<path opacity="0.7" d="M20.4375 2.625C20.5781 2.625 20.7188 2.57812 20.8125 2.48438C20.9062 2.39062 21 2.25 21 2.0625V0.5625C21 0.421875 20.9062 0.28125 20.8125 0.1875C20.7188 0.09375 20.5781 0 20.4375 0H0.5625C0.375 0 0.234375 0.09375 0.140625 0.1875C0.046875 0.28125 0 0.421875 0 0.5625V2.0625C0 2.25 0.046875 2.39062 0.140625 2.48438C0.234375 2.57812 0.375 2.625 0.5625 2.625H20.4375ZM20.4375 10.125C20.5781 10.125 20.7188 10.0781 20.8125 9.98438C20.9062 9.89062 21 9.75 21 9.5625V8.0625C21 7.92188 20.9062 7.78125 20.8125 7.6875C20.7188 7.59375 20.5781 7.5 20.4375 7.5H0.5625C0.375 7.5 0.234375 7.59375 0.140625 7.6875C0.046875 7.78125 0 7.92188 0 8.0625V9.5625C0 9.75 0.046875 9.89062 0.140625 9.98438C0.234375 10.0781 0.375 10.125 0.5625 10.125H20.4375ZM20.4375 17.625C20.5781 17.625 20.7188 17.5781 20.8125 17.4844C20.9062 17.3906 21 17.25 21 17.0625V15.5625C21 15.4219 20.9062 15.2812 20.8125 15.1875C20.7188 15.0938 20.5781 15 20.4375 15H0.5625C0.375 15 0.234375 15.0938 0.140625 15.1875C0.046875 15.2812 0 15.4219 0 15.5625V17.0625C0 17.25 0.046875 17.3906 0.140625 17.4844C0.234375 17.5781 0.375 17.625 0.5625 17.625H20.4375Z" fill="#2a2a2a"/>
</svg>
